# xmcd
#
# Track frame offsets:
#	180
#	14249
#	29471
#	44710
#	62630
#	75560
#	91995
#	111129
#	123887
#	138823
#
# Disc length: 2009 seconds
#
# Revision: 1
# Processed by: cddbd v1.5.2PL0 Copyright (c) Steve Scherf et al.
# Submitted via: audiograbber 1.83.01
#
DISCID=8207d70a
DTITLE=Gene Garrett - Way too hot
DYEAR=1900
DGENRE=Country
TTITLE0=Way too hot to handle
TTITLE1=Mendin' fences
TTITLE2=I'll see your broken heart
TTITLE3=Cancel your tomorrows
TTITLE4=I don't wanna...
TTITLE5=My heart knows what's in store
TTITLE6=Strong enough to love again
TTITLE7=Wrecking ball
TTITLE8=What-a-ya say
TTITLE9=Win, place or show
EXTD=
EXTT0=
EXTT1=
EXTT2=
EXTT3=
EXTT4=
EXTT5=
EXTT6=
EXTT7=
EXTT8=
EXTT9=
PLAYORDER=
